<svg xmlns="http://www.w3.org/2000/svg" width="48" height="48" viewBox="0 0 48 48" fill="none">
  <rect width="48" height="48" rx="6" fill="#1A73E8"/>
  <path d="M24 9C22.3431 9 21 10.3431 21 12V21H12C10.3431 21 9 22.3431 9 24C9 25.6569 10.3431 27 12 27H21V36C21 37.6569 22.3431 39 24 39C25.6569 39 27 37.6569 27 36V27H36C37.6569 27 39 25.6569 39 24C39 22.3431 37.6569 21 36 21H27V12C27 10.3431 25.6569 9 24 9Z" fill="white"/>
  <path d="M24 15C23.4477 15 23 15.4477 23 16V22H16C15.4477 22 15 22.4477 15 23C15 23.5523 15.4477 24 16 24H23V32C23 32.5523 23.4477 33 24 33C24.5523 33 25 32.5523 25 32V24H32C32.5523 24 33 23.5523 33 23C33 22.4477 32.5523 22 32 22H25V16C25 15.4477 24.5523 15 24 15Z" fill="#1A73E8"/>
</svg> 