<svg xmlns="http://www.w3.org/2000/svg" width="128" height="128" viewBox="0 0 128 128" fill="none">
  <rect width="128" height="128" rx="16" fill="#1A73E8"/>
  <circle cx="64" cy="64" r="44" fill="#1A73E8" stroke="white" stroke-width="8"/>
  <path d="M64 28C61.7909 28 60 29.7909 60 32V60H32C29.7909 60 28 61.7909 28 64C28 66.2091 29.7909 68 32 68H60V96C60 98.2091 61.7909 100 64 100C66.2091 100 68 98.2091 68 96V68H96C98.2091 68 100 66.2091 100 64C100 61.7909 98.2091 60 96 60H68V32C68 29.7909 66.2091 28 64 28Z" fill="white"/>
  <path d="M64 44C62.8954 44 62 44.8954 62 46V62H46C44.8954 62 44 62.8954 44 64C44 65.1046 44.8954 66 46 66H62V82C62 83.1046 62.8954 84 64 84C65.1046 84 66 83.1046 66 82V66H82C83.1046 66 84 65.1046 84 64C84 62.8954 83.1046 62 82 62H66V46C66 44.8954 65.1046 44 64 44Z" fill="#1A73E8"/>
</svg> 